HIERARCHY
ROOT Hips
{
	OFFSET 0.000000 71.427986 0.000000
	CHANNELS 6 Xposition Yposition Zposition Xrotation Yrotation Zrotation
	JOINT Pelvis
	{
		OFFSET 0.000000 0.000000 0.000000
		CHANNELS 3 Xrotation Yrotation Zrotation
		JOINT LeftUpLeg
		{
			OFFSET 6.797100 -2.508499 -1.318700
			CHANNELS 3 Xrotation Yrotation Zrotation
			JOINT LeftLeg
			{
				OFFSET 0.069008 -29.241863 0.690200
				CHANNELS 3 Xrotation Yrotation Zrotation
				JOINT LeftFoot
				{
					OFFSET -0.069008 -29.568123 -0.266800
					CHANNELS 3 Xrotation Yrotation Zrotation
					JOINT LeftToeBase
					{
						OFFSET 3.145500 -8.631000 16.059900
						CHANNELS 3 Xrotation Yrotation Zrotation
						End Site
						{
							OFFSET 0.000000 18.501587 0.000000
						}
					}
				}
			}
			JOINT Left_ShortSleeve
			{
				OFFSET 0.265923 -10.480953 1.153800
				CHANNELS 3 Xrotation Yrotation Zrotation
				End Site
				{
					OFFSET 1.725763 19.823879 0.000000
				}
			}
		}
		JOINT RightUpLeg
		{
			OFFSET -6.797100 -2.508499 -1.318700
			CHANNELS 3 Xrotation Yrotation Zrotation
			JOINT RightLeg
			{
				OFFSET -0.082453 -29.241932 0.688000
				CHANNELS 3 Xrotation Yrotation Zrotation
				JOINT RightFoot
				{
					OFFSET 0.082453 -29.568058 -0.264600
					CHANNELS 3 Xrotation Yrotation Zrotation
					JOINT RightToeBase
					{
						OFFSET -3.115300 -8.682800 16.113400
						CHANNELS 3 Xrotation Yrotation Zrotation
						End Site
						{
							OFFSET 0.000000 18.567114 0.000000
						}
					}
				}
			}
			JOINT Right_ShortSleeve
			{
				OFFSET -0.265923 -10.480953 1.153800
				CHANNELS 3 Xrotation Yrotation Zrotation
				End Site
				{
					OFFSET -1.725766 19.823910 0.000000
				}
			}
		}
	}
	JOINT Spine
	{
		OFFSET 0.000000 13.368103 0.470500
		CHANNELS 3 Xrotation Yrotation Zrotation
		JOINT Spine1
		{
			OFFSET 0.147000 13.837402 0.538800
			CHANNELS 3 Xrotation Yrotation Zrotation
			JOINT Spine2
			{
				OFFSET 0.168000 16.242897 -1.435500
				CHANNELS 3 Xrotation Yrotation Zrotation
				JOINT Neck
				{
					OFFSET 0.217200 18.631500 -1.679100
					CHANNELS 3 Xrotation Yrotation Zrotation
					JOINT Head
					{
						OFFSET 0.000000 6.599396 1.385900
						CHANNELS 3 Xrotation Yrotation Zrotation
						JOINT Hat
						{
							OFFSET -0.532200 27.220596 -10.096100
							CHANNELS 3 Xrotation Yrotation Zrotation
							End Site
							{
								OFFSET 0.000000 22.029861 0.000000
							}
						}
						JOINT HairD
						{
							OFFSET -10.777400 17.437393 -1.325900
							CHANNELS 3 Xrotation Yrotation Zrotation
							JOINT HairD1
							{
								OFFSET -3.290299 -11.051193 1.062200
								CHANNELS 3 Xrotation Yrotation Zrotation
								End Site
								{
									OFFSET 0.000000 11.579437 0.000000
								}
							}
						}
						JOINT HairB
						{
							OFFSET -10.777400 17.437393 1.467900
							CHANNELS 3 Xrotation Yrotation Zrotation
							JOINT HairB1
							{
								OFFSET -1.561200 -12.956299 3.590200
								CHANNELS 3 Xrotation Yrotation Zrotation
								End Site
								{
									OFFSET 0.000000 13.534866 0.000000
								}
							}
						}
						JOINT HairA
						{
							OFFSET 9.713100 17.437393 1.467900
							CHANNELS 3 Xrotation Yrotation Zrotation
							JOINT HairA1
							{
								OFFSET 1.561200 -12.956299 3.590200
								CHANNELS 3 Xrotation Yrotation Zrotation
								End Site
								{
									OFFSET 0.000000 13.534866 0.000000
								}
							}
						}
						JOINT HairC
						{
							OFFSET 9.713100 17.437393 -1.325900
							CHANNELS 3 Xrotation Yrotation Zrotation
							JOINT HairC1
							{
								OFFSET 3.290300 -11.051193 1.062200
								CHANNELS 3 Xrotation Yrotation Zrotation
								End Site
								{
									OFFSET 0.000000 11.579437 0.000000
								}
							}
						}
					}
				}
				JOINT LeftShoulder
				{
					OFFSET 5.101800 15.108002 -2.763700
					CHANNELS 3 Xrotation Yrotation Zrotation
					JOINT LeftArm
					{
						OFFSET 9.825497 2.506317 -1.597400
						CHANNELS 3 Xrotation Yrotation Zrotation
						JOINT LeftForeArm
						{
							OFFSET 21.966244 0.000000 0.000000
							CHANNELS 3 Xrotation Yrotation Zrotation
							JOINT LeftHand
							{
								OFFSET 33.879036 0.000000 0.000000
								CHANNELS 3 Xrotation Yrotation Zrotation
								JOINT LeftHandThumb1
								{
									OFFSET 6.715286 -2.359680 3.363841
									CHANNELS 3 Xrotation Yrotation Zrotation
									JOINT LeftHandThumb2
									{
										OFFSET 2.507072 -1.447464 1.447461
										CHANNELS 3 Xrotation Yrotation Zrotation
										JOINT LeftHandThumb3
										{
											OFFSET 2.898338 -1.673355 1.673357
											CHANNELS 3 Xrotation Yrotation Zrotation
											End Site
											{
												OFFSET -0.295959 3.727692 -0.131651
											}
										}
									}
								}
								JOINT LeftHandIndex1
								{
									OFFSET 14.190811 -0.254547 3.840278
									CHANNELS 3 Xrotation Yrotation Zrotation
									JOINT LeftHandIndex2
									{
										OFFSET 3.551727 0.000000 -0.000000
										CHANNELS 3 Xrotation Yrotation Zrotation
										JOINT LeftHandIndex3
										{
											OFFSET 2.894196 0.000000 0.000000
											CHANNELS 3 Xrotation Yrotation Zrotation
											End Site
											{
												OFFSET -1.000603 2.690872 0.366626
											}
										}
									}
								}
								JOINT LeftHandMiddle1
								{
									OFFSET 13.776489 0.000000 0.000000
									CHANNELS 3 Xrotation Yrotation Zrotation
									JOINT LeftHandMiddle2
									{
										OFFSET 3.438232 0.000000 0.000000
										CHANNELS 3 Xrotation Yrotation Zrotation
										JOINT LeftHandMiddle3
										{
											OFFSET 3.691551 0.000000 0.000000
											CHANNELS 3 Xrotation Yrotation Zrotation
											End Site
											{
												OFFSET -1.082298 3.499527 0.457670
											}
										}
									}
								}
								JOINT LeftHandRing1
								{
									OFFSET 13.966164 -0.268127 -3.067488
									CHANNELS 3 Xrotation Yrotation Zrotation
									JOINT LeftHandRing2
									{
										OFFSET 3.162567 0.000000 0.000000
										CHANNELS 3 Xrotation Yrotation Zrotation
										JOINT LeftHandRing3
										{
											OFFSET 3.324348 0.000000 0.000000
											CHANNELS 3 Xrotation Yrotation Zrotation
											End Site
											{
												OFFSET -0.861900 3.184998 0.405154
											}
										}
									}
								}
								JOINT LeftHandPinky1
								{
									OFFSET 13.131393 -0.168503 -5.746925
									CHANNELS 3 Xrotation Yrotation Zrotation
									JOINT LeftHandPinky2
									{
										OFFSET 2.849182 0.000000 0.000000
										CHANNELS 3 Xrotation Yrotation Zrotation
										JOINT LeftHandPinky3
										{
											OFFSET 2.805038 0.000000 0.000000
											CHANNELS 3 Xrotation Yrotation Zrotation
											End Site
											{
												OFFSET -0.882500 2.642609 0.325652
											}
										}
									}
								}
							}
							JOINT Left_Sleeve
							{
								OFFSET 6.592125 -0.646545 0.805568
								CHANNELS 3 Xrotation Yrotation Zrotation
								End Site
								{
									OFFSET -0.000179 20.275787 -0.000000
								}
							}
						}
					}
				}
				JOINT RightShoulder
				{
					OFFSET -5.731700 15.108002 -2.763700
					CHANNELS 3 Xrotation Yrotation Zrotation
					JOINT RightArm
					{
						OFFSET -9.825497 2.506317 -1.597400
						CHANNELS 3 Xrotation Yrotation Zrotation
						JOINT RightForeArm
						{
							OFFSET -21.966242 0.000000 0.000000
							CHANNELS 3 Xrotation Yrotation Zrotation
							JOINT RightHand
							{
								OFFSET -33.879032 0.000000 0.000000
								CHANNELS 3 Xrotation Yrotation Zrotation
								JOINT RightHandThumb1
								{
									OFFSET -6.715286 -2.359680 3.363841
									CHANNELS 3 Xrotation Yrotation Zrotation
									JOINT RightHandThumb2
									{
										OFFSET -2.507072 -1.447464 1.447461
										CHANNELS 3 Xrotation Yrotation Zrotation
										JOINT RightHandThumb3
										{
											OFFSET -2.898338 -1.673355 1.673357
											CHANNELS 3 Xrotation Yrotation Zrotation
											End Site
											{
												OFFSET 0.295959 3.727692 -0.131651
											}
										}
									}
								}
								JOINT RightHandIndex1
								{
									OFFSET -14.190811 -0.254547 3.840278
									CHANNELS 3 Xrotation Yrotation Zrotation
									JOINT RightHandIndex2
									{
										OFFSET -3.551727 0.000000 -0.000000
										CHANNELS 3 Xrotation Yrotation Zrotation
										JOINT RightHandIndex3
										{
											OFFSET -2.894196 0.000000 0.000000
											CHANNELS 3 Xrotation Yrotation Zrotation
											End Site
											{
												OFFSET 1.000603 2.690872 0.366626
											}
										}
									}
								}
								JOINT RightHandMiddle1
								{
									OFFSET -13.776489 0.000000 0.000000
									CHANNELS 3 Xrotation Yrotation Zrotation
									JOINT RightHandMiddle2
									{
										OFFSET -3.438232 0.000000 0.000000
										CHANNELS 3 Xrotation Yrotation Zrotation
										JOINT RightHandMiddle3
										{
											OFFSET -3.691551 0.000000 0.000000
											CHANNELS 3 Xrotation Yrotation Zrotation
											End Site
											{
												OFFSET 1.082298 3.499527 0.457670
											}
										}
									}
								}
								JOINT RightHandRing1
								{
									OFFSET -13.966164 -0.268127 -3.067488
									CHANNELS 3 Xrotation Yrotation Zrotation
									JOINT RightHandRing2
									{
										OFFSET -3.162567 0.000000 0.000000
										CHANNELS 3 Xrotation Yrotation Zrotation
										JOINT RightHandRing3
										{
											OFFSET -3.324348 0.000000 0.000000
											CHANNELS 3 Xrotation Yrotation Zrotation
											End Site
											{
												OFFSET 0.861900 3.184998 0.405154
											}
										}
									}
								}
								JOINT RightHandPinky1
								{
									OFFSET -13.131393 -0.168503 -5.746925
									CHANNELS 3 Xrotation Yrotation Zrotation
									JOINT RightHandPinky2
									{
										OFFSET -2.849182 0.000000 0.000000
										CHANNELS 3 Xrotation Yrotation Zrotation
										JOINT RightHandPinky3
										{
											OFFSET -2.805038 0.000000 0.000000
											CHANNELS 3 Xrotation Yrotation Zrotation
											End Site
											{
												OFFSET 0.882500 2.642609 0.325652
											}
										}
									}
								}
							}
							JOINT Right_Sleeve
							{
								OFFSET -6.592125 -0.646545 0.805568
								CHANNELS 3 Xrotation Yrotation Zrotation
								End Site
								{
									OFFSET 0.000179 20.275787 -0.000000
								}
							}
						}
					}
				}
				JOINT Bind_Right_JacketString
				{
					OFFSET -3.534800 11.969597 7.200700
					CHANNELS 3 Xrotation Yrotation Zrotation
					JOINT Bind_Right_JacketString1
					{
						OFFSET -0.319900 -6.102600 2.794100
						CHANNELS 3 Xrotation Yrotation Zrotation
						End Site
						{
							OFFSET 0.000000 6.719452 0.000000
						}
					}
				}
				JOINT Bind_Left_JacketString
				{
					OFFSET 2.904800 11.969597 7.200700
					CHANNELS 3 Xrotation Yrotation Zrotation
					JOINT Bind_Left_JacketString1
					{
						OFFSET 0.364800 -5.904503 3.186800
						CHANNELS 3 Xrotation Yrotation Zrotation
						End Site
						{
							OFFSET 0.000000 6.719513 0.000000
						}
					}
				}
				JOINT HairE
				{
					OFFSET 5.915200 17.612701 -11.592200
					CHANNELS 3 Xrotation Yrotation Zrotation
					JOINT HairE1
					{
						OFFSET 0.289200 -7.171898 -1.284500
						CHANNELS 3 Xrotation Yrotation Zrotation
						End Site
						{
							OFFSET 0.000000 7.291756 0.000000
						}
					}
				}
				JOINT HairF
				{
					OFFSET -0.864800 17.612701 -11.592200
					CHANNELS 3 Xrotation Yrotation Zrotation
					JOINT HairF1
					{
						OFFSET 0.000000 -14.087097 -2.127501
						CHANNELS 3 Xrotation Yrotation Zrotation
						End Site
						{
							OFFSET 0.000000 14.246841 0.000000
						}
					}
				}
				JOINT HairG
				{
					OFFSET -8.087700 17.612701 -11.592200
					CHANNELS 3 Xrotation Yrotation Zrotation
					JOINT HairG1
					{
						OFFSET -0.293600 -6.081398 -0.910100
						CHANNELS 3 Xrotation Yrotation Zrotation
						End Site
						{
							OFFSET 0.000000 6.156120 0.000000
						}
					}
				}
			}
		}
	}
	JOINT Pouch
	{
		OFFSET 0.000000 4.394501 10.847300
		CHANNELS 3 Xrotation Yrotation Zrotation
		End Site
		{
			OFFSET 0.000000 21.880577 0.000000
		}
	}
	JOINT Bag
	{
		OFFSET -13.229000 4.813004 -0.593300
		CHANNELS 3 Xrotation Yrotation Zrotation
		End Site
		{
			OFFSET 0.000000 21.880577 0.000000
		}
	}
	JOINT OccupyGuyFacialAnim_Joint
	{
		OFFSET 1.000000 -70.206398 -1.655000
		CHANNELS 3 Xrotation Yrotation Zrotation
		End Site
		{
			OFFSET 0.000000 21.880577 0.000000
		}
	}
}
MOTION
Frames: 4
Frame Time: 0.033333
-1.682720 67.737053 2.753160 26.184625 -56.015167 32.991146 0.000001 0.000001 -0.000000 -36.042495 -1.364628 -12.933840 22.254898 -9.843120 2.267161 -1.808760 -8.590197 -1.769327 -0.000000 0.000000 -0.000000 -0.000001 0.000001 0.000000 -34.558783 -2.539189 -18.659684 38.719864 -10.137149 -7.845133 -15.349289 -10.729933 14.363405 -0.000000 -0.000000 -0.000000 -0.000001 0.000002 -0.000000 19.445764 17.887275 13.571985 4.165197 5.251192 6.060366 4.318002 5.251752 5.861863 5.893062 -4.542944 1.005253 14.065210 -22.533426 6.563954 0.000000 -0.000000 -0.000000 0.000000 -0.000000 -0.000000 0.000000 -0.000000 -0.000000 0.000000 -0.000000 -0.000000 0.000000 0.000001 -0.000000 0.000000 -0.000000 -0.000000 0.000000 0.000001 -0.000000 0.000000 -0.000000 -0.000000 0.000000 -0.000000 -0.000000 2.887716 -18.037239 12.247356 -40.884109 -20.254453 -85.578411 -0.000010 -40.923843 -0.000022 -36.424610 17.520253 25.090599 47.335260 -9.767194 19.370652 5.975229 12.647536 1.348325 0.000001 0.000001 -0.000001 2.673512 7.224013 -56.285420 7.379872 5.648436 -105.171888 0.000002 -0.000002 -0.000001 3.849297 7.823821 -69.259402 5.350768 5.829712 -85.086317 0.000001 0.000002 0.000001 5.186188 8.153287 -82.789344 4.747000 5.746330 -79.104806 -0.000002 0.000000 0.000003 5.971092 8.198891 -90.500710 2.749718 4.963942 -57.946451 -0.000000 0.000001 -0.000000 0.000001 -0.000001 0.000002 -1.363164 18.778579 21.857942 -58.228415 20.030252 77.522210 0.000001 15.324878 0.000004 -13.809678 -21.643268 -6.413751 14.501006 -6.211805 -0.243362 6.358384 -14.447592 -2.112217 -0.000001 0.000001 -0.000003 2.454446 -6.353464 61.045656 2.589168 -4.173724 63.612803 0.000003 0.000000 0.000000 2.825963 -6.536743 66.148770 2.589186 -4.173762 63.612782 -0.000000 0.000000 -0.000001 2.825947 -6.536694 66.148757 2.589186 -4.173772 63.612796 0.000001 0.000000 -0.000002 2.322359 -6.277994 59.172060 1.343813 -3.274562 44.615117 -0.000002 -0.000001 -0.000003 0.000002 -0.000000 0.000000 0.000001 0.000002 -0.000001 -0.000001 0.000000 -0.000001 0.000001 0.000002 -0.000001 0.000001 0.000002 -0.000001 0.000001 0.000002 -0.000001 -0.000001 0.000000 -0.000001 0.000001 0.000002 -0.000001 0.000001 0.000002 -0.000001 0.000001 0.000002 -0.000001 -0.000001 0.000000 -0.000001 0.000001 0.000001 -0.000000 0.000001 0.000001 -0.000000 0.000001 0.000001 -0.000000 
-1.710531 67.734879 2.870950 25.371866 -55.593126 32.291847 -0.000000 0.000000 -0.000000 -35.784181 -1.439771 -13.256776 22.248699 -9.834298 2.268770 -1.808848 -8.987247 -1.614928 0.000000 0.000000 0.000000 0.000002 -0.000001 -0.000000 -34.073789 -2.857756 -19.055949 38.588598 -10.045631 -7.778506 -15.401906 -10.949330 14.689083 0.000000 -0.000000 -0.000000 0.000000 0.000001 -0.000001 19.245252 17.923224 13.753065 4.135287 5.263402 6.075627 4.289860 5.261770 5.879777 5.862968 -4.139638 1.523733 12.752871 -19.749799 5.267674 -0.000000 0.000001 -0.000000 -0.000000 0.000001 -0.000000 -0.000000 0.000001 0.000001 -0.000000 0.000001 0.000001 -0.000000 -0.000001 -0.000000 -0.000000 0.000001 0.000001 -0.000000 -0.000001 -0.000000 -0.000000 0.000001 -0.000000 -0.000000 0.000001 -0.000000 2.995583 -17.906154 12.646425 -40.434136 -20.183192 -85.656228 -0.000011 -41.734635 -0.000002 -36.888134 17.224781 25.914194 47.335253 -9.767188 19.370659 5.975230 12.647529 1.348322 0.000001 0.000002 0.000001 2.673511 7.224010 -56.285410 7.379872 5.648436 -105.171888 0.000001 -0.000003 -0.000001 3.849296 7.823819 -69.259402 5.350766 5.829712 -85.086317 -0.000000 -0.000001 -0.000003 5.186188 8.153286 -82.789338 4.747001 5.746330 -79.104806 -0.000001 0.000002 0.000000 5.971093 8.198888 -90.500703 2.749715 4.963938 -57.946444 -0.000001 -0.000000 0.000001 0.000000 -0.000001 -0.000003 -1.370211 18.959517 21.807923 -57.613636 20.261867 77.394547 -0.000011 16.332685 0.000000 -13.831313 -21.932017 -6.154488 14.501000 -6.211806 -0.243358 6.358385 -14.447595 -2.112220 0.000001 -0.000002 0.000000 2.454445 -6.353458 61.045663 2.589170 -4.173721 63.612789 -0.000000 0.000000 0.000000 2.825962 -6.536745 66.148757 2.589189 -4.173764 63.612782 -0.000003 -0.000001 0.000001 2.825944 -6.536695 66.148757 2.589188 -4.173774 63.612796 0.000002 -0.000003 0.000000 2.322361 -6.277989 59.172060 1.343814 -3.274562 44.615120 -0.000001 0.000001 -0.000003 0.000003 -0.000000 -0.000001 -0.000001 0.000002 0.000003 -0.000001 0.000000 -0.000000 -0.000001 0.000002 0.000001 -0.000001 0.000002 0.000001 -0.000001 0.000002 0.000003 -0.000001 0.000000 -0.000000 -0.000001 0.000002 0.000001 -0.000001 0.000002 0.000001 -0.000001 0.000002 0.000003 -0.000001 0.000000 -0.000000 -0.000000 0.000000 -0.000000 -0.000000 0.000000 -0.000000 -0.000000 0.000000 -0.000000 
-1.727404 67.730148 2.961394 24.682116 -55.231191 31.685394 0.000001 -0.000001 0.000001 -35.574583 -1.513194 -13.511243 22.250149 -9.829306 2.266528 -1.771668 -9.331408 -1.490249 -0.000000 -0.000000 0.000000 -0.000002 0.000000 -0.000000 -33.658588 -3.161668 -19.396327 38.466058 -9.969963 -7.697862 -15.441946 -11.108226 14.980710 0.000000 0.000000 -0.000000 0.000002 0.000000 -0.000001 19.094299 17.862073 13.885887 4.139238 5.245551 6.063976 4.294020 5.240127 5.873036 5.975783 -3.718883 2.054780 11.014347 -16.880273 3.784901 0.000000 0.000001 -0.000000 0.000000 0.000001 -0.000000 0.000000 0.000001 -0.000000 0.000000 0.000001 -0.000000 0.000002 -0.000004 -0.000001 0.000000 0.000001 -0.000000 0.000002 -0.000004 -0.000001 0.000000 0.000001 -0.000000 0.000000 0.000001 -0.000000 3.082396 -17.871272 12.952284 -40.037141 -20.184440 -85.665442 -0.000008 -42.366034 -0.000011 -37.322834 16.998652 26.722152 47.335253 -9.767195 19.370650 5.975226 12.647527 1.348317 -0.000004 0.000001 -0.000000 2.673514 7.224015 -56.285417 7.379870 5.648437 -105.171888 0.000001 0.000002 0.000002 3.849298 7.823823 -69.259409 5.350765 5.829713 -85.086317 0.000000 0.000003 -0.000001 5.186190 8.153286 -82.789351 4.747001 5.746332 -79.104813 -0.000001 0.000000 -0.000002 5.971095 8.198891 -90.500710 2.749721 4.963940 -57.946444 0.000000 0.000001 -0.000001 -0.000001 -0.000001 -0.000003 -1.363006 19.093063 21.713851 -57.243016 20.551384 77.332829 0.000001 16.800570 0.000002 -13.998270 -21.981267 -5.802360 14.501000 -6.211803 -0.243362 6.358389 -14.447594 -2.112215 0.000000 0.000002 -0.000001 2.454447 -6.353462 61.045663 2.589171 -4.173725 63.612796 -0.000003 0.000000 -0.000001 2.825960 -6.536740 66.148763 2.589189 -4.173757 63.612782 0.000003 0.000001 -0.000001 2.825946 -6.536692 66.148757 2.589187 -4.173775 63.612796 0.000005 -0.000003 -0.000002 2.322358 -6.277992 59.172060 1.343812 -3.274565 44.615117 -0.000002 0.000002 0.000001 -0.000002 0.000001 0.000001 -0.000000 0.000000 -0.000001 -0.000002 -0.000000 0.000000 -0.000000 0.000000 -0.000001 -0.000000 0.000000 -0.000001 -0.000000 0.000000 -0.000001 -0.000002 -0.000000 0.000000 -0.000000 0.000000 -0.000001 -0.000000 0.000000 -0.000001 -0.000000 0.000000 -0.000001 -0.000002 -0.000000 0.000000 0.000001 -0.000001 0.000001 0.000001 -0.000001 0.000001 0.000001 -0.000001 0.000001 
-1.743746 67.738594 3.031208 24.050168 -54.939135 31.100870 0.000001 0.000000 -0.000001 -35.324864 -1.562463 -13.679661 22.198509 -9.824906 2.263743 -1.711602 -9.664561 -1.407054 0.000000 0.000000 -0.000000 0.000001 -0.000001 -0.000000 -33.240181 -3.450523 -19.641684 38.307980 -9.914278 -7.620533 -15.451483 -11.249607 15.186014 0.000000 0.000000 -0.000000 -0.000001 -0.000002 -0.000001 19.000555 17.782686 14.014577 4.170685 5.221080 6.055668 4.324946 5.211883 5.869950 6.250714 -3.292644 2.549104 9.088298 -14.097872 2.508298 -0.000000 -0.000001 0.000001 -0.000000 -0.000001 0.000001 -0.000000 -0.000001 0.000002 -0.000000 -0.000001 0.000001 -0.000000 -0.000001 0.000001 -0.000000 -0.000001 0.000001 -0.000000 -0.000001 0.000001 -0.000000 -0.000001 0.000001 -0.000000 -0.000001 0.000001 3.127428 -17.926846 13.093711 -39.520718 -20.292038 -85.426767 0.000003 -43.003902 -0.000006 -37.860087 16.788976 27.527291 47.335253 -9.767188 19.370657 5.975227 12.647528 1.348321 0.000002 -0.000000 -0.000001 2.673514 7.224014 -56.285417 7.379870 5.648436 -105.171888 0.000001 0.000001 -0.000002 3.849300 7.823822 -69.259402 5.350766 5.829712 -85.086317 0.000000 0.000000 0.000001 5.186190 8.153289 -82.789338 4.747002 5.746330 -79.104813 -0.000001 0.000003 0.000000 5.971096 8.198889 -90.500703 2.749717 4.963939 -57.946451 0.000001 -0.000000 -0.000001 0.000000 0.000001 0.000006 -1.354663 19.169752 21.665440 -57.207967 21.126591 77.397668 -0.000004 16.578894 0.000002 -14.285640 -21.718939 -5.402703 14.500999 -6.211801 -0.243355 6.358389 -14.447590 -2.112219 -0.000000 -0.000001 0.000001 2.454447 -6.353465 61.045656 2.589169 -4.173726 63.612796 -0.000002 -0.000001 0.000000 2.825964 -6.536742 66.148763 2.589183 -4.173766 63.612782 -0.000002 0.000000 0.000001 2.825948 -6.536696 66.148757 2.589187 -4.173773 63.612796 0.000003 -0.000002 0.000001 2.322358 -6.277995 59.172060 1.343813 -3.274559 44.615113 0.000003 0.000000 -0.000003 0.000002 0.000001 -0.000000 0.000001 -0.000000 0.000000 -0.000000 -0.000000 0.000000 0.000001 -0.000000 -0.000001 0.000001 -0.000000 -0.000001 0.000001 -0.000000 0.000000 -0.000000 -0.000000 0.000000 0.000001 -0.000000 -0.000001 0.000001 -0.000000 -0.000001 0.000001 -0.000000 0.000000 -0.000000 -0.000000 0.000000 0.000001 0.000000 -0.000001 0.000001 0.000000 -0.000001 0.000001 0.000000 -0.000001 
